<mxfile>
    <diagram id="C5RBs43oDa-KdzZeNtuy" name="Page-1">
        <mxGraphModel dx="821" dy="1627" grid="1" gridSize="10" guides="1" tooltips="1" connect="1" arrows="1" fold="1" page="1" pageScale="1" pageWidth="827" pageHeight="1169" math="0" shadow="0">
            <root>
                <mxCell id="WIyWlLk6GJQsqaUBKTNV-0"/>
                <mxCell id="WIyWlLk6GJQsqaUBKTNV-1" parent="WIyWlLk6GJQsqaUBKTNV-0"/>
                <mxCell id="zkfFHV4jXpPFQw0GAbJ--6" value="Patient" style="swimlane;fontStyle=0;align=center;verticalAlign=top;childLayout=stackLayout;horizontal=1;startSize=26;horizontalStack=0;resizeParent=1;resizeLast=0;collapsible=1;marginBottom=0;rounded=0;shadow=0;strokeWidth=1;" parent="WIyWlLk6GJQsqaUBKTNV-1" vertex="1">
                    <mxGeometry x="950" y="-20" width="160" height="240" as="geometry">
                        <mxRectangle x="130" y="380" width="160" height="26" as="alternateBounds"/>
                    </mxGeometry>
                </mxCell>
                <mxCell id="zkfFHV4jXpPFQw0GAbJ--7" value="-id: Long&#10;-name: String&#10;-gender: Gender&#10;-dob: LocalDate&#10;-phoneNumber: String&#10;-address: String&#10;-createdAt: LocalDateTime&#10;-updatedAt: LocalDateTime" style="text;align=left;verticalAlign=top;spacingLeft=4;spacingRight=4;overflow=hidden;rotatable=0;points=[[0,0.5],[1,0.5]];portConstraint=eastwest;" parent="zkfFHV4jXpPFQw0GAbJ--6" vertex="1">
                    <mxGeometry y="26" width="160" height="134" as="geometry"/>
                </mxCell>
                <mxCell id="zkfFHV4jXpPFQw0GAbJ--9" value="" style="line;html=1;strokeWidth=1;align=left;verticalAlign=middle;spacingTop=-1;spacingLeft=3;spacingRight=3;rotatable=0;labelPosition=right;points=[];portConstraint=eastwest;" parent="zkfFHV4jXpPFQw0GAbJ--6" vertex="1">
                    <mxGeometry y="160" width="160" height="8" as="geometry"/>
                </mxCell>
                <mxCell id="VamWovpJc_V0CRE-rLIE-1" value="+getter: Object&lt;br&gt;+setter: void" style="text;html=1;align=left;verticalAlign=middle;resizable=0;points=[];autosize=1;strokeColor=none;" parent="zkfFHV4jXpPFQw0GAbJ--6" vertex="1">
                    <mxGeometry y="168" width="160" height="30" as="geometry"/>
                </mxCell>
                <mxCell id="zkfFHV4jXpPFQw0GAbJ--13" value="&lt;&lt;Interface&gt;&gt;&#10;PatientRepository&#10;" style="swimlane;fontStyle=0;align=center;verticalAlign=top;childLayout=stackLayout;horizontal=1;startSize=40;horizontalStack=0;resizeParent=1;resizeLast=0;collapsible=1;marginBottom=0;rounded=0;shadow=0;strokeWidth=1;" parent="WIyWlLk6GJQsqaUBKTNV-1" vertex="1">
                    <mxGeometry x="500" y="160" width="280" height="110" as="geometry">
                        <mxRectangle x="340" y="380" width="170" height="26" as="alternateBounds"/>
                    </mxGeometry>
                </mxCell>
                <mxCell id="zkfFHV4jXpPFQw0GAbJ--14" value="-existByPhoneNumber: boolean&#10;-findAllNameLike(String keyword): Page&lt;Patient&gt;&#10;-findAllNameLike(String keyword): List&lt;Patient&gt;&#10;&#10;" style="text;align=left;verticalAlign=top;spacingLeft=4;spacingRight=4;overflow=hidden;rotatable=0;points=[[0,0.5],[1,0.5]];portConstraint=eastwest;" parent="zkfFHV4jXpPFQw0GAbJ--13" vertex="1">
                    <mxGeometry y="40" width="280" height="64" as="geometry"/>
                </mxCell>
                <mxCell id="VamWovpJc_V0CRE-rLIE-4" value="CreatePatientDTO" style="swimlane;fontStyle=0;align=center;verticalAlign=top;childLayout=stackLayout;horizontal=1;startSize=26;horizontalStack=0;resizeParent=1;resizeLast=0;collapsible=1;marginBottom=0;rounded=0;shadow=0;strokeWidth=1;" parent="WIyWlLk6GJQsqaUBKTNV-1" vertex="1">
                    <mxGeometry x="130" y="-310" width="200" height="140" as="geometry">
                        <mxRectangle x="340" y="380" width="170" height="26" as="alternateBounds"/>
                    </mxGeometry>
                </mxCell>
                <mxCell id="VamWovpJc_V0CRE-rLIE-5" value="-patientId: Long&#10;-name: String&#10;-createdAt: LocalDateTime&#10;-updatedAt: LocalDateTime&#10;" style="text;align=left;verticalAlign=top;spacingLeft=4;spacingRight=4;overflow=hidden;rotatable=0;points=[[0,0.5],[1,0.5]];portConstraint=eastwest;" parent="VamWovpJc_V0CRE-rLIE-4" vertex="1">
                    <mxGeometry y="26" width="200" height="74" as="geometry"/>
                </mxCell>
                <mxCell id="VamWovpJc_V0CRE-rLIE-6" value="" style="line;html=1;strokeWidth=1;align=left;verticalAlign=middle;spacingTop=-1;spacingLeft=3;spacingRight=3;rotatable=0;labelPosition=right;points=[];portConstraint=eastwest;" parent="VamWovpJc_V0CRE-rLIE-4" vertex="1">
                    <mxGeometry y="100" width="200" height="10" as="geometry"/>
                </mxCell>
                <mxCell id="VamWovpJc_V0CRE-rLIE-7" value="+getter: Object&lt;br&gt;+setter: void" style="text;html=1;align=left;verticalAlign=middle;resizable=0;points=[];autosize=1;strokeColor=none;" parent="VamWovpJc_V0CRE-rLIE-4" vertex="1">
                    <mxGeometry y="110" width="200" height="30" as="geometry"/>
                </mxCell>
                <mxCell id="VamWovpJc_V0CRE-rLIE-9" value="UpdatePatientDTO" style="swimlane;fontStyle=0;align=center;verticalAlign=top;childLayout=stackLayout;horizontal=1;startSize=26;horizontalStack=0;resizeParent=1;resizeLast=0;collapsible=1;marginBottom=0;rounded=0;shadow=0;strokeWidth=1;" parent="WIyWlLk6GJQsqaUBKTNV-1" vertex="1">
                    <mxGeometry x="130" y="-110" width="200" height="140" as="geometry">
                        <mxRectangle x="340" y="380" width="170" height="26" as="alternateBounds"/>
                    </mxGeometry>
                </mxCell>
                <mxCell id="VamWovpJc_V0CRE-rLIE-10" value="-patientId: Long&#10;-name: String&#10;-updatedAt: LocalDateTime&#10;" style="text;align=left;verticalAlign=top;spacingLeft=4;spacingRight=4;overflow=hidden;rotatable=0;points=[[0,0.5],[1,0.5]];portConstraint=eastwest;" parent="VamWovpJc_V0CRE-rLIE-9" vertex="1">
                    <mxGeometry y="26" width="200" height="74" as="geometry"/>
                </mxCell>
                <mxCell id="VamWovpJc_V0CRE-rLIE-11" value="" style="line;html=1;strokeWidth=1;align=left;verticalAlign=middle;spacingTop=-1;spacingLeft=3;spacingRight=3;rotatable=0;labelPosition=right;points=[];portConstraint=eastwest;" parent="VamWovpJc_V0CRE-rLIE-9" vertex="1">
                    <mxGeometry y="100" width="200" height="10" as="geometry"/>
                </mxCell>
                <mxCell id="VamWovpJc_V0CRE-rLIE-12" value="+getter: Object&lt;br&gt;+setter: void" style="text;html=1;align=left;verticalAlign=middle;resizable=0;points=[];autosize=1;strokeColor=none;" parent="VamWovpJc_V0CRE-rLIE-9" vertex="1">
                    <mxGeometry y="110" width="200" height="30" as="geometry"/>
                </mxCell>
                <mxCell id="VamWovpJc_V0CRE-rLIE-26" style="edgeStyle=orthogonalEdgeStyle;rounded=0;orthogonalLoop=1;jettySize=auto;html=1;entryX=0.5;entryY=0;entryDx=0;entryDy=0;endArrow=classic;endFill=1;" parent="WIyWlLk6GJQsqaUBKTNV-1" source="VamWovpJc_V0CRE-rLIE-13" target="zkfFHV4jXpPFQw0GAbJ--13" edge="1">
                    <mxGeometry relative="1" as="geometry"/>
                </mxCell>
                <mxCell id="VamWovpJc_V0CRE-rLIE-13" value="PatientService" style="swimlane;fontStyle=0;align=center;verticalAlign=top;childLayout=stackLayout;horizontal=1;startSize=26;horizontalStack=0;resizeParent=1;resizeLast=0;collapsible=1;marginBottom=0;rounded=0;shadow=0;strokeWidth=1;" parent="WIyWlLk6GJQsqaUBKTNV-1" vertex="1">
                    <mxGeometry x="440" y="-110" width="400" height="220" as="geometry">
                        <mxRectangle x="340" y="380" width="170" height="26" as="alternateBounds"/>
                    </mxGeometry>
                </mxCell>
                <mxCell id="VamWovpJc_V0CRE-rLIE-14" value="-patientRepository: PatientRepository&#10;-modelMapper: ModelMapper&#10;" style="text;align=left;verticalAlign=top;spacingLeft=4;spacingRight=4;overflow=hidden;rotatable=0;points=[[0,0.5],[1,0.5]];portConstraint=eastwest;" parent="VamWovpJc_V0CRE-rLIE-13" vertex="1">
                    <mxGeometry y="26" width="400" height="44" as="geometry"/>
                </mxCell>
                <mxCell id="VamWovpJc_V0CRE-rLIE-15" value="" style="line;html=1;strokeWidth=1;align=left;verticalAlign=middle;spacingTop=-1;spacingLeft=3;spacingRight=3;rotatable=0;labelPosition=right;points=[];portConstraint=eastwest;" parent="VamWovpJc_V0CRE-rLIE-13" vertex="1">
                    <mxGeometry y="70" width="400" height="8" as="geometry"/>
                </mxCell>
                <mxCell id="VamWovpJc_V0CRE-rLIE-16" value="+create: Patient&lt;br&gt;+updateById: Patient&lt;br&gt;+deletebyId: void&lt;br&gt;+findAll: List&amp;lt;Patient&amp;gt;&lt;br&gt;+getById(Long id): Patient&lt;br&gt;+findAll(Pageable pageable): Page&amp;lt;Patient&amp;gt;&lt;br&gt;+isPhoneNumberUnique(String phoneNumber)&lt;br&gt;+findAllByKeyword(String keyword, Pageable pageable): Page&amp;lt;Patient&amp;gt;&lt;br&gt;+findByKeyword(String keyword): List&amp;lt;Patient&amp;gt;" style="text;html=1;align=left;verticalAlign=middle;resizable=0;points=[];autosize=1;strokeColor=none;" parent="VamWovpJc_V0CRE-rLIE-13" vertex="1">
                    <mxGeometry y="78" width="400" height="130" as="geometry"/>
                </mxCell>
                <mxCell id="VamWovpJc_V0CRE-rLIE-31" style="edgeStyle=orthogonalEdgeStyle;rounded=0;orthogonalLoop=1;jettySize=auto;html=1;entryX=0.559;entryY=-0.027;entryDx=0;entryDy=0;entryPerimeter=0;endArrow=classic;endFill=1;" parent="WIyWlLk6GJQsqaUBKTNV-1" source="VamWovpJc_V0CRE-rLIE-19" target="VamWovpJc_V0CRE-rLIE-9" edge="1">
                    <mxGeometry relative="1" as="geometry">
                        <Array as="points">
                            <mxPoint x="550" y="-150"/>
                            <mxPoint x="242" y="-150"/>
                        </Array>
                    </mxGeometry>
                </mxCell>
                <mxCell id="VamWovpJc_V0CRE-rLIE-19" value="PatientController" style="swimlane;fontStyle=0;align=center;verticalAlign=top;childLayout=stackLayout;horizontal=1;startSize=26;horizontalStack=0;resizeParent=1;resizeLast=0;collapsible=1;marginBottom=0;rounded=0;shadow=0;strokeWidth=1;" parent="WIyWlLk6GJQsqaUBKTNV-1" vertex="1">
                    <mxGeometry x="450" y="-360" width="200" height="160" as="geometry">
                        <mxRectangle x="340" y="380" width="170" height="26" as="alternateBounds"/>
                    </mxGeometry>
                </mxCell>
                <mxCell id="VamWovpJc_V0CRE-rLIE-20" value="-patientService: PatientService&#10;" style="text;align=left;verticalAlign=top;spacingLeft=4;spacingRight=4;overflow=hidden;rotatable=0;points=[[0,0.5],[1,0.5]];portConstraint=eastwest;" parent="VamWovpJc_V0CRE-rLIE-19" vertex="1">
                    <mxGeometry y="26" width="200" height="34" as="geometry"/>
                </mxCell>
                <mxCell id="VamWovpJc_V0CRE-rLIE-21" value="" style="line;html=1;strokeWidth=1;align=left;verticalAlign=middle;spacingTop=-1;spacingLeft=3;spacingRight=3;rotatable=0;labelPosition=right;points=[];portConstraint=eastwest;" parent="VamWovpJc_V0CRE-rLIE-19" vertex="1">
                    <mxGeometry y="60" width="200" height="8" as="geometry"/>
                </mxCell>
                <mxCell id="VamWovpJc_V0CRE-rLIE-22" value="+create: Patient&lt;br&gt;+findAll: List&amp;lt;Patient&amp;gt;&lt;br&gt;+getById: Patient&lt;br&gt;+deleteById: void&lt;br&gt;+isPhoneNumberUnique: boolean" style="text;html=1;align=left;verticalAlign=middle;resizable=0;points=[];autosize=1;strokeColor=none;" parent="VamWovpJc_V0CRE-rLIE-19" vertex="1">
                    <mxGeometry y="68" width="200" height="70" as="geometry"/>
                </mxCell>
                <mxCell id="VamWovpJc_V0CRE-rLIE-27" style="rounded=0;orthogonalLoop=1;jettySize=auto;html=1;entryX=-0.008;entryY=0.173;entryDx=0;entryDy=0;entryPerimeter=0;endArrow=open;endFill=0;" parent="WIyWlLk6GJQsqaUBKTNV-1" source="VamWovpJc_V0CRE-rLIE-16" target="zkfFHV4jXpPFQw0GAbJ--7" edge="1">
                    <mxGeometry relative="1" as="geometry"/>
                </mxCell>
                <mxCell id="VamWovpJc_V0CRE-rLIE-28" style="edgeStyle=orthogonalEdgeStyle;rounded=0;orthogonalLoop=1;jettySize=auto;html=1;entryX=0.026;entryY=0.644;entryDx=0;entryDy=0;entryPerimeter=0;endArrow=classic;endFill=1;" parent="WIyWlLk6GJQsqaUBKTNV-1" source="zkfFHV4jXpPFQw0GAbJ--14" target="zkfFHV4jXpPFQw0GAbJ--7" edge="1">
                    <mxGeometry relative="1" as="geometry"/>
                </mxCell>
                <mxCell id="VamWovpJc_V0CRE-rLIE-29" style="edgeStyle=orthogonalEdgeStyle;rounded=0;orthogonalLoop=1;jettySize=auto;html=1;entryX=1.015;entryY=0.393;entryDx=0;entryDy=0;entryPerimeter=0;endArrow=classic;endFill=1;" parent="WIyWlLk6GJQsqaUBKTNV-1" source="VamWovpJc_V0CRE-rLIE-22" target="VamWovpJc_V0CRE-rLIE-5" edge="1">
                    <mxGeometry relative="1" as="geometry"/>
                </mxCell>
                <mxCell id="VamWovpJc_V0CRE-rLIE-30" style="edgeStyle=orthogonalEdgeStyle;rounded=0;orthogonalLoop=1;jettySize=auto;html=1;entryX=1.006;entryY=0.914;entryDx=0;entryDy=0;entryPerimeter=0;endArrow=classic;endFill=1;" parent="WIyWlLk6GJQsqaUBKTNV-1" target="VamWovpJc_V0CRE-rLIE-5" edge="1">
                    <mxGeometry relative="1" as="geometry">
                        <mxPoint x="440" y="30" as="sourcePoint"/>
                    </mxGeometry>
                </mxCell>
                <mxCell id="VamWovpJc_V0CRE-rLIE-32" style="edgeStyle=orthogonalEdgeStyle;rounded=0;orthogonalLoop=1;jettySize=auto;html=1;entryX=1;entryY=0.5;entryDx=0;entryDy=0;endArrow=classic;endFill=1;" parent="WIyWlLk6GJQsqaUBKTNV-1" source="VamWovpJc_V0CRE-rLIE-16" target="VamWovpJc_V0CRE-rLIE-10" edge="1">
                    <mxGeometry relative="1" as="geometry"/>
                </mxCell>
            </root>
        </mxGraphModel>
    </diagram>
</mxfile>